<mxfile host="Electron" agent="Mozilla/5.0 (X11; Linux x86_64) AppleWebKit/537.36 (KHTML, like Gecko) draw.io/28.1.2 Chrome/138.0.7204.251 Electron/37.5.1 Safari/537.36" version="28.1.2">
  <diagram name="PÃ¡gina-1" id="oE5SToJG6d0fqBrR_LVp">
    <mxGraphModel dx="1019" dy="617" grid="1" gridSize="10" guides="1" tooltips="1" connect="1" arrows="1" fold="1" page="1" pageScale="1" pageWidth="1169" pageHeight="827" math="0" shadow="0">
      <root>
        <mxCell id="0" />
        <mxCell id="1" parent="0" />
        <mxCell id="Xy_Kt93vGEhqBD_L53yG-1" value="id" style="ellipse;whiteSpace=wrap;html=1;fillColor=none;" parent="1" vertex="1">
          <mxGeometry x="57.5" y="492" width="30" height="20" as="geometry" />
        </mxCell>
        <mxCell id="SnB1N_KesckS_-LBV5Pf-58" style="edgeStyle=orthogonalEdgeStyle;rounded=0;orthogonalLoop=1;jettySize=auto;html=1;exitX=0.5;exitY=1;exitDx=0;exitDy=0;" parent="1" edge="1">
          <mxGeometry relative="1" as="geometry">
            <mxPoint x="159.9999999999999" y="570" as="sourcePoint" />
            <mxPoint x="159.9999999999999" y="570" as="targetPoint" />
          </mxGeometry>
        </mxCell>
        <mxCell id="SnB1N_KesckS_-LBV5Pf-65" value="" style="endArrow=none;html=1;rounded=0;strokeWidth=1.5;strokeColor=#00ff00;jumpSize=6;endSize=6;" parent="1" edge="1">
          <mxGeometry width="50" height="50" relative="1" as="geometry">
            <mxPoint x="67.5" y="509" as="sourcePoint" />
            <mxPoint x="77.5" y="509" as="targetPoint" />
          </mxGeometry>
        </mxCell>
        <mxCell id="pcUj4MwKIDvx0GaRPvgX-3" value="&lt;i style=&quot;font-size: 20px;&quot;&gt;Product&lt;/i&gt;" style="rounded=0;whiteSpace=wrap;html=1;fillColor=none;align=center;" parent="1" vertex="1">
          <mxGeometry x="101.25" y="520" width="108.75" height="60" as="geometry" />
        </mxCell>
        <mxCell id="XwNhUvzAYBpl0VFSliFA-16" value="" style="endArrow=none;html=1;rounded=0;exitX=0;exitY=0.25;exitDx=0;exitDy=0;entryX=1;entryY=1;entryDx=0;entryDy=0;" parent="1" source="pcUj4MwKIDvx0GaRPvgX-3" target="Xy_Kt93vGEhqBD_L53yG-1" edge="1">
          <mxGeometry width="50" height="50" relative="1" as="geometry">
            <mxPoint x="106.24000000000001" y="598" as="sourcePoint" />
            <mxPoint x="90" y="510" as="targetPoint" />
          </mxGeometry>
        </mxCell>
        <mxCell id="XwNhUvzAYBpl0VFSliFA-22" value="&lt;span style=&quot;font-size: 16px;&quot;&gt;&lt;i&gt;Includes&lt;/i&gt;&lt;/span&gt;" style="html=1;whiteSpace=wrap;aspect=fixed;shape=isoRectangle;fillColor=none;" parent="1" vertex="1">
          <mxGeometry x="270" y="513.75" width="120.84" height="72.5" as="geometry" />
        </mxCell>
        <mxCell id="XwNhUvzAYBpl0VFSliFA-27" value="(0, n)" style="text;html=1;align=center;verticalAlign=middle;whiteSpace=wrap;rounded=0;" parent="1" vertex="1">
          <mxGeometry x="220" y="520" width="60" height="30" as="geometry" />
        </mxCell>
        <mxCell id="XwNhUvzAYBpl0VFSliFA-31" value="" style="endArrow=none;html=1;rounded=0;exitX=1;exitY=0.5;exitDx=0;exitDy=0;entryX=0.004;entryY=0.499;entryDx=0;entryDy=0;entryPerimeter=0;" parent="1" source="pcUj4MwKIDvx0GaRPvgX-3" target="XwNhUvzAYBpl0VFSliFA-22" edge="1">
          <mxGeometry width="50" height="50" relative="1" as="geometry">
            <mxPoint x="261" y="559" as="sourcePoint" />
            <mxPoint x="290" y="559" as="targetPoint" />
          </mxGeometry>
        </mxCell>
        <mxCell id="jjyvyoVuMIes-spuAeXh-1" value="(1, n)" style="text;html=1;align=center;verticalAlign=middle;whiteSpace=wrap;rounded=0;" parent="1" vertex="1">
          <mxGeometry x="380" y="520" width="60" height="30" as="geometry" />
        </mxCell>
        <mxCell id="yTSjlXrY0dPMjYInfQWD-1" value="&lt;b style=&quot;font-size: 18px;&quot;&gt;N:M&lt;/b&gt;" style="text;html=1;align=center;verticalAlign=middle;whiteSpace=wrap;rounded=0;fontSize=18;" parent="1" vertex="1">
          <mxGeometry x="303.75" y="490.25" width="53.33" height="23.5" as="geometry" />
        </mxCell>
        <mxCell id="sRWVKsXR1g_RUoGMcLxZ-1" value="name" style="ellipse;whiteSpace=wrap;html=1;fillColor=none;" parent="1" vertex="1">
          <mxGeometry x="7.5" y="520" width="50" height="20" as="geometry" />
        </mxCell>
        <mxCell id="sRWVKsXR1g_RUoGMcLxZ-2" value="stock" style="ellipse;whiteSpace=wrap;html=1;fillColor=none;" parent="1" vertex="1">
          <mxGeometry x="22.5" y="581" width="52.5" height="16" as="geometry" />
        </mxCell>
        <mxCell id="sRWVKsXR1g_RUoGMcLxZ-3" value="description" style="ellipse;whiteSpace=wrap;html=1;fillColor=none;" parent="1" vertex="1">
          <mxGeometry x="10" y="546" width="65" height="28" as="geometry" />
        </mxCell>
        <mxCell id="sRWVKsXR1g_RUoGMcLxZ-5" value="" style="endArrow=none;html=1;rounded=0;entryX=0.991;entryY=0.567;entryDx=0;entryDy=0;exitX=0;exitY=0.5;exitDx=0;exitDy=0;entryPerimeter=0;" parent="1" source="pcUj4MwKIDvx0GaRPvgX-3" target="sRWVKsXR1g_RUoGMcLxZ-1" edge="1">
          <mxGeometry width="50" height="50" relative="1" as="geometry">
            <mxPoint x="111" y="550" as="sourcePoint" />
            <mxPoint x="90" y="534" as="targetPoint" />
          </mxGeometry>
        </mxCell>
        <mxCell id="sRWVKsXR1g_RUoGMcLxZ-6" value="" style="endArrow=none;html=1;rounded=0;entryX=1;entryY=0.5;entryDx=0;entryDy=0;exitX=0;exitY=0.75;exitDx=0;exitDy=0;" parent="1" source="pcUj4MwKIDvx0GaRPvgX-3" target="sRWVKsXR1g_RUoGMcLxZ-3" edge="1">
          <mxGeometry width="50" height="50" relative="1" as="geometry">
            <mxPoint x="111" y="569" as="sourcePoint" />
            <mxPoint x="90" y="566" as="targetPoint" />
          </mxGeometry>
        </mxCell>
        <mxCell id="sRWVKsXR1g_RUoGMcLxZ-7" value="" style="endArrow=none;html=1;rounded=0;entryX=1;entryY=0.5;entryDx=0;entryDy=0;exitX=0;exitY=1;exitDx=0;exitDy=0;" parent="1" source="pcUj4MwKIDvx0GaRPvgX-3" target="sRWVKsXR1g_RUoGMcLxZ-2" edge="1">
          <mxGeometry width="50" height="50" relative="1" as="geometry">
            <mxPoint x="111" y="588" as="sourcePoint" />
            <mxPoint x="95" y="588" as="targetPoint" />
            <Array as="points" />
          </mxGeometry>
        </mxCell>
        <mxCell id="udv7P9SN18o3QwY9gsTe-1" value="price" style="ellipse;whiteSpace=wrap;html=1;fillColor=none;" parent="1" vertex="1">
          <mxGeometry x="57.5" y="601.75" width="50" height="18.25" as="geometry" />
        </mxCell>
        <mxCell id="udv7P9SN18o3QwY9gsTe-3" value="discount" style="ellipse;whiteSpace=wrap;html=1;fillColor=none;" parent="1" vertex="1">
          <mxGeometry x="115" y="600" width="65" height="20" as="geometry" />
        </mxCell>
        <mxCell id="udv7P9SN18o3QwY9gsTe-4" value="size" style="ellipse;whiteSpace=wrap;html=1;fillColor=none;" parent="1" vertex="1">
          <mxGeometry x="95" y="480" width="50" height="20" as="geometry" />
        </mxCell>
        <mxCell id="udv7P9SN18o3QwY9gsTe-5" value="color" style="ellipse;whiteSpace=wrap;html=1;fillColor=none;" parent="1" vertex="1">
          <mxGeometry x="190" y="600" width="55" height="20" as="geometry" />
        </mxCell>
        <mxCell id="udv7P9SN18o3QwY9gsTe-7" value="" style="endArrow=none;html=1;rounded=0;entryX=1;entryY=0;entryDx=0;entryDy=0;exitX=0.25;exitY=1;exitDx=0;exitDy=0;" parent="1" source="pcUj4MwKIDvx0GaRPvgX-3" target="udv7P9SN18o3QwY9gsTe-1" edge="1">
          <mxGeometry width="50" height="50" relative="1" as="geometry">
            <mxPoint x="111" y="590" as="sourcePoint" />
            <mxPoint x="78" y="607" as="targetPoint" />
            <Array as="points" />
          </mxGeometry>
        </mxCell>
        <mxCell id="udv7P9SN18o3QwY9gsTe-8" value="" style="endArrow=none;html=1;rounded=0;exitX=0.5;exitY=1;exitDx=0;exitDy=0;entryX=0.5;entryY=0;entryDx=0;entryDy=0;" parent="1" source="pcUj4MwKIDvx0GaRPvgX-3" target="udv7P9SN18o3QwY9gsTe-3" edge="1">
          <mxGeometry width="50" height="50" relative="1" as="geometry">
            <mxPoint x="136" y="590" as="sourcePoint" />
            <mxPoint x="90" y="640" as="targetPoint" />
            <Array as="points" />
          </mxGeometry>
        </mxCell>
        <mxCell id="udv7P9SN18o3QwY9gsTe-9" value="" style="endArrow=none;html=1;rounded=0;exitX=0.75;exitY=1;exitDx=0;exitDy=0;entryX=0.5;entryY=0;entryDx=0;entryDy=0;" parent="1" source="pcUj4MwKIDvx0GaRPvgX-3" target="udv7P9SN18o3QwY9gsTe-5" edge="1">
          <mxGeometry width="50" height="50" relative="1" as="geometry">
            <mxPoint x="161" y="590" as="sourcePoint" />
            <mxPoint x="144" y="610" as="targetPoint" />
            <Array as="points" />
          </mxGeometry>
        </mxCell>
        <mxCell id="udv7P9SN18o3QwY9gsTe-10" value="images" style="ellipse;whiteSpace=wrap;html=1;fillColor=none;" parent="1" vertex="1">
          <mxGeometry x="170" y="484" width="60" height="20" as="geometry" />
        </mxCell>
        <mxCell id="udv7P9SN18o3QwY9gsTe-11" value="" style="endArrow=none;html=1;rounded=0;entryX=0.5;entryY=1;entryDx=0;entryDy=0;exitX=0.25;exitY=0;exitDx=0;exitDy=0;" parent="1" source="pcUj4MwKIDvx0GaRPvgX-3" target="udv7P9SN18o3QwY9gsTe-4" edge="1">
          <mxGeometry width="50" height="50" relative="1" as="geometry">
            <mxPoint x="111" y="545" as="sourcePoint" />
            <mxPoint x="85" y="520" as="targetPoint" />
          </mxGeometry>
        </mxCell>
        <mxCell id="udv7P9SN18o3QwY9gsTe-12" value="" style="endArrow=none;html=1;rounded=0;entryX=0.5;entryY=1;entryDx=0;entryDy=0;exitX=0.75;exitY=0;exitDx=0;exitDy=0;" parent="1" source="pcUj4MwKIDvx0GaRPvgX-3" target="udv7P9SN18o3QwY9gsTe-10" edge="1">
          <mxGeometry width="50" height="50" relative="1" as="geometry">
            <mxPoint x="136" y="530" as="sourcePoint" />
            <mxPoint x="130" y="500" as="targetPoint" />
          </mxGeometry>
        </mxCell>
        <mxCell id="udv7P9SN18o3QwY9gsTe-14" value="(1, n)" style="text;html=1;align=center;verticalAlign=middle;whiteSpace=wrap;rounded=0;" parent="1" vertex="1">
          <mxGeometry x="170" y="459" width="60" height="30" as="geometry" />
        </mxCell>
        <mxCell id="udv7P9SN18o3QwY9gsTe-15" value="(0, 1)" style="text;html=1;align=center;verticalAlign=middle;whiteSpace=wrap;rounded=0;" parent="1" vertex="1">
          <mxGeometry x="90" y="453" width="60" height="31" as="geometry" />
        </mxCell>
        <mxCell id="udv7P9SN18o3QwY9gsTe-16" value="(0, 1)" style="text;html=1;align=center;verticalAlign=middle;whiteSpace=wrap;rounded=0;" parent="1" vertex="1">
          <mxGeometry x="187.5" y="616.75" width="60" height="30" as="geometry" />
        </mxCell>
        <mxCell id="udv7P9SN18o3QwY9gsTe-19" value="" style="endArrow=none;html=1;rounded=0;exitX=0.994;exitY=0.5;exitDx=0;exitDy=0;entryX=0;entryY=0.5;entryDx=0;entryDy=0;exitPerimeter=0;" parent="1" source="XwNhUvzAYBpl0VFSliFA-22" target="udv7P9SN18o3QwY9gsTe-22" edge="1">
          <mxGeometry width="50" height="50" relative="1" as="geometry">
            <mxPoint x="390.84000000000003" y="549.88" as="sourcePoint" />
            <mxPoint x="460" y="550" as="targetPoint" />
          </mxGeometry>
        </mxCell>
        <mxCell id="udv7P9SN18o3QwY9gsTe-22" value="&lt;span style=&quot;font-size: 20px;&quot;&gt;&lt;i&gt;Order&lt;/i&gt;&lt;/span&gt;" style="rounded=0;whiteSpace=wrap;html=1;fillColor=none;align=center;" parent="1" vertex="1">
          <mxGeometry x="460" y="520" width="108.75" height="60" as="geometry" />
        </mxCell>
        <mxCell id="udv7P9SN18o3QwY9gsTe-23" value="discount" style="ellipse;whiteSpace=wrap;html=1;fillColor=none;" parent="1" vertex="1">
          <mxGeometry x="238.75" y="574" width="65" height="20" as="geometry" />
        </mxCell>
        <mxCell id="udv7P9SN18o3QwY9gsTe-24" value="price" style="ellipse;whiteSpace=wrap;html=1;fillColor=none;" parent="1" vertex="1">
          <mxGeometry x="370" y="574" width="65" height="20" as="geometry" />
        </mxCell>
        <mxCell id="udv7P9SN18o3QwY9gsTe-25" value="quantity" style="ellipse;whiteSpace=wrap;html=1;fillColor=none;" parent="1" vertex="1">
          <mxGeometry x="245" y="490.25" width="65" height="20" as="geometry" />
        </mxCell>
        <mxCell id="udv7P9SN18o3QwY9gsTe-27" value="color" style="ellipse;whiteSpace=wrap;html=1;fillColor=none;" parent="1" vertex="1">
          <mxGeometry x="357.08" y="492" width="65" height="20" as="geometry" />
        </mxCell>
        <mxCell id="udv7P9SN18o3QwY9gsTe-28" value="size" style="ellipse;whiteSpace=wrap;html=1;fillColor=none;" parent="1" vertex="1">
          <mxGeometry x="315.00000000000006" y="610" width="65" height="20" as="geometry" />
        </mxCell>
        <mxCell id="udv7P9SN18o3QwY9gsTe-29" value="" style="endArrow=none;html=1;rounded=0;exitX=0.5;exitY=1;exitDx=0;exitDy=0;entryX=0.259;entryY=0.249;entryDx=0;entryDy=0;entryPerimeter=0;" parent="1" source="udv7P9SN18o3QwY9gsTe-25" target="XwNhUvzAYBpl0VFSliFA-22" edge="1">
          <mxGeometry width="50" height="50" relative="1" as="geometry">
            <mxPoint x="193" y="590" as="sourcePoint" />
            <mxPoint x="228" y="610" as="targetPoint" />
            <Array as="points" />
          </mxGeometry>
        </mxCell>
        <mxCell id="udv7P9SN18o3QwY9gsTe-30" value="" style="endArrow=none;html=1;rounded=0;exitX=0.5;exitY=1;exitDx=0;exitDy=0;entryX=0.708;entryY=0.22;entryDx=0;entryDy=0;entryPerimeter=0;" parent="1" source="udv7P9SN18o3QwY9gsTe-27" target="XwNhUvzAYBpl0VFSliFA-22" edge="1">
          <mxGeometry width="50" height="50" relative="1" as="geometry">
            <mxPoint x="288" y="520" as="sourcePoint" />
            <mxPoint x="311" y="542" as="targetPoint" />
            <Array as="points" />
          </mxGeometry>
        </mxCell>
        <mxCell id="udv7P9SN18o3QwY9gsTe-31" value="" style="endArrow=none;html=1;rounded=0;exitX=0.644;exitY=0.844;exitDx=0;exitDy=0;entryX=0.5;entryY=0;entryDx=0;entryDy=0;exitPerimeter=0;" parent="1" source="XwNhUvzAYBpl0VFSliFA-22" target="udv7P9SN18o3QwY9gsTe-28" edge="1">
          <mxGeometry width="50" height="50" relative="1" as="geometry">
            <mxPoint x="400" y="522" as="sourcePoint" />
            <mxPoint x="366" y="540" as="targetPoint" />
            <Array as="points" />
          </mxGeometry>
        </mxCell>
        <mxCell id="udv7P9SN18o3QwY9gsTe-32" value="" style="endArrow=none;html=1;rounded=0;exitX=0;exitY=0;exitDx=0;exitDy=0;entryX=0.783;entryY=0.713;entryDx=0;entryDy=0;entryPerimeter=0;" parent="1" source="udv7P9SN18o3QwY9gsTe-24" target="XwNhUvzAYBpl0VFSliFA-22" edge="1">
          <mxGeometry width="50" height="50" relative="1" as="geometry">
            <mxPoint x="358" y="585" as="sourcePoint" />
            <mxPoint x="358" y="620" as="targetPoint" />
            <Array as="points" />
          </mxGeometry>
        </mxCell>
        <mxCell id="udv7P9SN18o3QwY9gsTe-33" value="" style="endArrow=none;html=1;rounded=0;exitX=0.177;exitY=0.669;exitDx=0;exitDy=0;entryX=0.5;entryY=0;entryDx=0;entryDy=0;exitPerimeter=0;" parent="1" source="XwNhUvzAYBpl0VFSliFA-22" target="udv7P9SN18o3QwY9gsTe-23" edge="1">
          <mxGeometry width="50" height="50" relative="1" as="geometry">
            <mxPoint x="389" y="587" as="sourcePoint" />
            <mxPoint x="375" y="575" as="targetPoint" />
            <Array as="points" />
          </mxGeometry>
        </mxCell>
        <mxCell id="udv7P9SN18o3QwY9gsTe-34" value="(0, 1)" style="text;html=1;align=center;verticalAlign=middle;whiteSpace=wrap;rounded=0;" parent="1" vertex="1">
          <mxGeometry x="359.58000000000004" y="468" width="60" height="30" as="geometry" />
        </mxCell>
        <mxCell id="udv7P9SN18o3QwY9gsTe-35" value="(0, 1)" style="text;html=1;align=center;verticalAlign=middle;whiteSpace=wrap;rounded=0;" parent="1" vertex="1">
          <mxGeometry x="317.5" y="625" width="60" height="30" as="geometry" />
        </mxCell>
        <mxCell id="udv7P9SN18o3QwY9gsTe-36" value="total_price" style="ellipse;whiteSpace=wrap;html=1;fillColor=none;" parent="1" vertex="1">
          <mxGeometry x="440" y="594" width="70" height="26" as="geometry" />
        </mxCell>
        <mxCell id="udv7P9SN18o3QwY9gsTe-37" value="invoice_number" style="ellipse;whiteSpace=wrap;html=1;fillColor=none;" parent="1" vertex="1">
          <mxGeometry x="520" y="594" width="110" height="26" as="geometry" />
        </mxCell>
        <mxCell id="udv7P9SN18o3QwY9gsTe-38" value="status" style="ellipse;whiteSpace=wrap;html=1;fillColor=none;" parent="1" vertex="1">
          <mxGeometry x="435" y="490.25" width="55" height="20" as="geometry" />
        </mxCell>
        <mxCell id="udv7P9SN18o3QwY9gsTe-41" value="id" style="ellipse;whiteSpace=wrap;html=1;fillColor=none;" parent="1" vertex="1">
          <mxGeometry x="538.75" y="489" width="30" height="20" as="geometry" />
        </mxCell>
        <mxCell id="udv7P9SN18o3QwY9gsTe-43" value="" style="endArrow=none;html=1;rounded=0;strokeWidth=1.5;strokeColor=#00ff00;jumpSize=6;endSize=6;" parent="1" edge="1">
          <mxGeometry width="50" height="50" relative="1" as="geometry">
            <mxPoint x="548.75" y="505" as="sourcePoint" />
            <mxPoint x="558.75" y="505" as="targetPoint" />
          </mxGeometry>
        </mxCell>
        <mxCell id="udv7P9SN18o3QwY9gsTe-44" value="" style="endArrow=none;html=1;rounded=0;exitX=0.471;exitY=-0.013;exitDx=0;exitDy=0;entryX=0.25;entryY=1;entryDx=0;entryDy=0;exitPerimeter=0;" parent="1" source="udv7P9SN18o3QwY9gsTe-36" target="udv7P9SN18o3QwY9gsTe-22" edge="1">
          <mxGeometry width="50" height="50" relative="1" as="geometry">
            <mxPoint x="390" y="587" as="sourcePoint" />
            <mxPoint x="375" y="575" as="targetPoint" />
            <Array as="points" />
          </mxGeometry>
        </mxCell>
        <mxCell id="udv7P9SN18o3QwY9gsTe-46" value="" style="endArrow=none;html=1;rounded=0;exitX=0.5;exitY=0;exitDx=0;exitDy=0;entryX=0.75;entryY=1;entryDx=0;entryDy=0;" parent="1" source="udv7P9SN18o3QwY9gsTe-37" target="udv7P9SN18o3QwY9gsTe-22" edge="1">
          <mxGeometry width="50" height="50" relative="1" as="geometry">
            <mxPoint x="483" y="608" as="sourcePoint" />
            <mxPoint x="497" y="590" as="targetPoint" />
            <Array as="points" />
          </mxGeometry>
        </mxCell>
        <mxCell id="udv7P9SN18o3QwY9gsTe-47" value="" style="endArrow=none;html=1;rounded=0;exitX=0.25;exitY=0;exitDx=0;exitDy=0;entryX=0.5;entryY=1;entryDx=0;entryDy=0;" parent="1" source="udv7P9SN18o3QwY9gsTe-22" target="udv7P9SN18o3QwY9gsTe-38" edge="1">
          <mxGeometry width="50" height="50" relative="1" as="geometry">
            <mxPoint x="483" y="608" as="sourcePoint" />
            <mxPoint x="497" y="590" as="targetPoint" />
            <Array as="points" />
          </mxGeometry>
        </mxCell>
        <mxCell id="udv7P9SN18o3QwY9gsTe-48" value="" style="endArrow=none;html=1;rounded=0;exitX=0.75;exitY=0;exitDx=0;exitDy=0;entryX=0.5;entryY=1;entryDx=0;entryDy=0;" parent="1" source="udv7P9SN18o3QwY9gsTe-22" target="udv7P9SN18o3QwY9gsTe-41" edge="1">
          <mxGeometry width="50" height="50" relative="1" as="geometry">
            <mxPoint x="497" y="530" as="sourcePoint" />
            <mxPoint x="510" y="517" as="targetPoint" />
            <Array as="points" />
          </mxGeometry>
        </mxCell>
        <mxCell id="udv7P9SN18o3QwY9gsTe-50" value="" style="endArrow=none;html=1;rounded=0;strokeWidth=1.5;strokeColor=#00ff00;jumpSize=6;endSize=6;" parent="1" edge="1">
          <mxGeometry width="50" height="50" relative="1" as="geometry">
            <mxPoint x="567" y="617" as="sourcePoint" />
            <mxPoint x="583" y="617" as="targetPoint" />
          </mxGeometry>
        </mxCell>
        <mxCell id="udv7P9SN18o3QwY9gsTe-51" value="" style="endArrow=none;html=1;rounded=0;exitX=0.5;exitY=0;exitDx=0;exitDy=0;entryX=0.5;entryY=0.977;entryDx=0;entryDy=0;entryPerimeter=0;" parent="1" source="pcUj4MwKIDvx0GaRPvgX-3" target="udv7P9SN18o3QwY9gsTe-52" edge="1">
          <mxGeometry width="50" height="50" relative="1" as="geometry">
            <mxPoint x="220" y="560" as="sourcePoint" />
            <mxPoint x="156" y="470" as="targetPoint" />
          </mxGeometry>
        </mxCell>
        <mxCell id="udv7P9SN18o3QwY9gsTe-52" value="&lt;span style=&quot;font-size: 16px;&quot;&gt;&lt;i&gt;Sells&lt;/i&gt;&lt;/span&gt;" style="html=1;whiteSpace=wrap;aspect=fixed;shape=isoRectangle;fillColor=none;" parent="1" vertex="1">
          <mxGeometry x="95.19999999999999" y="350" width="120.84" height="72.5" as="geometry" />
        </mxCell>
        <mxCell id="udv7P9SN18o3QwY9gsTe-55" value="&lt;i style=&quot;font-size: 20px;&quot;&gt;Store&lt;/i&gt;" style="rounded=0;whiteSpace=wrap;html=1;fillColor=none;align=center;" parent="1" vertex="1">
          <mxGeometry x="101.25" y="230" width="108.75" height="60" as="geometry" />
        </mxCell>
        <mxCell id="udv7P9SN18o3QwY9gsTe-56" value="" style="endArrow=none;html=1;rounded=0;exitX=0.499;exitY=0.027;exitDx=0;exitDy=0;entryX=0.5;entryY=1;entryDx=0;entryDy=0;exitPerimeter=0;" parent="1" source="udv7P9SN18o3QwY9gsTe-52" target="udv7P9SN18o3QwY9gsTe-55" edge="1">
          <mxGeometry width="50" height="50" relative="1" as="geometry">
            <mxPoint x="155.37" y="370" as="sourcePoint" />
            <mxPoint x="155.37" y="291" as="targetPoint" />
          </mxGeometry>
        </mxCell>
        <mxCell id="udv7P9SN18o3QwY9gsTe-57" value="id" style="ellipse;whiteSpace=wrap;html=1;fillColor=none;" parent="1" vertex="1">
          <mxGeometry x="45" y="230" width="30" height="20" as="geometry" />
        </mxCell>
        <mxCell id="udv7P9SN18o3QwY9gsTe-58" value="name" style="ellipse;whiteSpace=wrap;html=1;fillColor=none;" parent="1" vertex="1">
          <mxGeometry x="37.5" y="260" width="50" height="20" as="geometry" />
        </mxCell>
        <mxCell id="udv7P9SN18o3QwY9gsTe-60" value="" style="endArrow=none;html=1;rounded=0;entryX=1;entryY=0.5;entryDx=0;entryDy=0;exitX=0;exitY=0.25;exitDx=0;exitDy=0;" parent="1" source="udv7P9SN18o3QwY9gsTe-55" target="udv7P9SN18o3QwY9gsTe-57" edge="1">
          <mxGeometry width="50" height="50" relative="1" as="geometry">
            <mxPoint x="75" y="390" as="sourcePoint" />
            <mxPoint x="67" y="370" as="targetPoint" />
          </mxGeometry>
        </mxCell>
        <mxCell id="udv7P9SN18o3QwY9gsTe-61" value="" style="endArrow=none;html=1;rounded=0;entryX=1;entryY=0;entryDx=0;entryDy=0;exitX=0;exitY=0.5;exitDx=0;exitDy=0;" parent="1" source="udv7P9SN18o3QwY9gsTe-55" target="udv7P9SN18o3QwY9gsTe-58" edge="1">
          <mxGeometry width="50" height="50" relative="1" as="geometry">
            <mxPoint x="111" y="275" as="sourcePoint" />
            <mxPoint x="85" y="280" as="targetPoint" />
          </mxGeometry>
        </mxCell>
        <mxCell id="udv7P9SN18o3QwY9gsTe-62" value="" style="endArrow=none;html=1;rounded=0;strokeWidth=1.5;strokeColor=#00ff00;jumpSize=6;endSize=6;" parent="1" edge="1">
          <mxGeometry width="50" height="50" relative="1" as="geometry">
            <mxPoint x="55" y="247" as="sourcePoint" />
            <mxPoint x="65" y="247" as="targetPoint" />
          </mxGeometry>
        </mxCell>
        <mxCell id="udv7P9SN18o3QwY9gsTe-63" value="(1, 1)" style="text;html=1;align=center;verticalAlign=middle;whiteSpace=wrap;rounded=0;" parent="1" vertex="1">
          <mxGeometry x="156.04" y="414" width="60" height="30" as="geometry" />
        </mxCell>
        <mxCell id="udv7P9SN18o3QwY9gsTe-64" value="(0, n)" style="text;html=1;align=center;verticalAlign=middle;whiteSpace=wrap;rounded=0;" parent="1" vertex="1">
          <mxGeometry x="156.04" y="320" width="60" height="30" as="geometry" />
        </mxCell>
        <mxCell id="udv7P9SN18o3QwY9gsTe-65" value="&lt;b style=&quot;font-size: 18px;&quot;&gt;1:N&lt;/b&gt;" style="text;html=1;align=center;verticalAlign=middle;whiteSpace=wrap;rounded=0;fontSize=18;" parent="1" vertex="1">
          <mxGeometry x="45.00000000000003" y="374.5" width="53.33" height="23.5" as="geometry" />
        </mxCell>
        <mxCell id="udv7P9SN18o3QwY9gsTe-66" value="&lt;span style=&quot;font-size: 16px;&quot;&gt;&lt;i&gt;Creates&lt;/i&gt;&lt;/span&gt;" style="html=1;whiteSpace=wrap;aspect=fixed;shape=isoRectangle;fillColor=none;" parent="1" vertex="1">
          <mxGeometry x="269.99" y="223.75" width="120.84" height="72.5" as="geometry" />
        </mxCell>
        <mxCell id="udv7P9SN18o3QwY9gsTe-67" value="&lt;i style=&quot;font-size: 20px;&quot;&gt;User&lt;/i&gt;" style="rounded=0;whiteSpace=wrap;html=1;fillColor=none;align=center;" parent="1" vertex="1">
          <mxGeometry x="460" y="230" width="108.75" height="60" as="geometry" />
        </mxCell>
        <mxCell id="udv7P9SN18o3QwY9gsTe-68" value="&lt;span style=&quot;font-size: 16px;&quot;&gt;&lt;i&gt;Has&lt;/i&gt;&lt;/span&gt;" style="html=1;whiteSpace=wrap;aspect=fixed;shape=isoRectangle;fillColor=none;" parent="1" vertex="1">
          <mxGeometry x="650" y="223.75" width="120.84" height="72.5" as="geometry" />
        </mxCell>
        <mxCell id="udv7P9SN18o3QwY9gsTe-69" value="" style="endArrow=none;html=1;rounded=0;entryX=1;entryY=0.5;entryDx=0;entryDy=0;" parent="1" target="udv7P9SN18o3QwY9gsTe-55" edge="1">
          <mxGeometry width="50" height="50" relative="1" as="geometry">
            <mxPoint x="270" y="260" as="sourcePoint" />
            <mxPoint x="166" y="300" as="targetPoint" />
          </mxGeometry>
        </mxCell>
        <mxCell id="udv7P9SN18o3QwY9gsTe-70" value="" style="endArrow=none;html=1;rounded=0;exitX=0;exitY=0.5;exitDx=0;exitDy=0;" parent="1" source="udv7P9SN18o3QwY9gsTe-67" edge="1">
          <mxGeometry width="50" height="50" relative="1" as="geometry">
            <mxPoint x="280" y="270" as="sourcePoint" />
            <mxPoint x="390" y="260" as="targetPoint" />
          </mxGeometry>
        </mxCell>
        <mxCell id="udv7P9SN18o3QwY9gsTe-71" value="id" style="ellipse;whiteSpace=wrap;html=1;fillColor=none;" parent="1" vertex="1">
          <mxGeometry x="470" y="200.25" width="30" height="20" as="geometry" />
        </mxCell>
        <mxCell id="udv7P9SN18o3QwY9gsTe-75" value="name" style="ellipse;whiteSpace=wrap;html=1;fillColor=none;" parent="1" vertex="1">
          <mxGeometry x="520" y="200.25" width="50" height="20" as="geometry" />
        </mxCell>
        <mxCell id="udv7P9SN18o3QwY9gsTe-79" value="email" style="ellipse;whiteSpace=wrap;html=1;fillColor=none;" parent="1" vertex="1">
          <mxGeometry x="528.75" y="300" width="50" height="20" as="geometry" />
        </mxCell>
        <mxCell id="udv7P9SN18o3QwY9gsTe-80" value="password" style="ellipse;whiteSpace=wrap;html=1;fillColor=none;" parent="1" vertex="1">
          <mxGeometry x="440" y="300" width="70" height="20" as="geometry" />
        </mxCell>
        <mxCell id="udv7P9SN18o3QwY9gsTe-81" value="(1, 1)" style="text;html=1;align=center;verticalAlign=middle;whiteSpace=wrap;rounded=0;" parent="1" vertex="1">
          <mxGeometry x="230" y="230" width="60" height="30" as="geometry" />
        </mxCell>
        <mxCell id="udv7P9SN18o3QwY9gsTe-82" value="(0, n)" style="text;html=1;align=center;verticalAlign=middle;whiteSpace=wrap;rounded=0;" parent="1" vertex="1">
          <mxGeometry x="370" y="230" width="60" height="30" as="geometry" />
        </mxCell>
        <mxCell id="udv7P9SN18o3QwY9gsTe-83" value="&lt;b style=&quot;font-size: 18px;&quot;&gt;1:N&lt;/b&gt;" style="text;html=1;align=center;verticalAlign=middle;whiteSpace=wrap;rounded=0;fontSize=18;" parent="1" vertex="1">
          <mxGeometry x="303.74" y="200.25" width="53.33" height="23.5" as="geometry" />
        </mxCell>
        <mxCell id="udv7P9SN18o3QwY9gsTe-84" value="" style="endArrow=none;html=1;rounded=0;exitX=0.25;exitY=1;exitDx=0;exitDy=0;entryX=0.5;entryY=0;entryDx=0;entryDy=0;" parent="1" source="udv7P9SN18o3QwY9gsTe-67" target="udv7P9SN18o3QwY9gsTe-80" edge="1">
          <mxGeometry width="50" height="50" relative="1" as="geometry">
            <mxPoint x="470" y="270" as="sourcePoint" />
            <mxPoint x="400" y="270" as="targetPoint" />
          </mxGeometry>
        </mxCell>
        <mxCell id="udv7P9SN18o3QwY9gsTe-85" value="" style="endArrow=none;html=1;rounded=0;exitX=0.75;exitY=1;exitDx=0;exitDy=0;entryX=0.5;entryY=0;entryDx=0;entryDy=0;" parent="1" source="udv7P9SN18o3QwY9gsTe-67" target="udv7P9SN18o3QwY9gsTe-79" edge="1">
          <mxGeometry width="50" height="50" relative="1" as="geometry">
            <mxPoint x="497" y="300" as="sourcePoint" />
            <mxPoint x="495" y="320" as="targetPoint" />
          </mxGeometry>
        </mxCell>
        <mxCell id="udv7P9SN18o3QwY9gsTe-86" value="" style="endArrow=none;html=1;rounded=0;exitX=0.75;exitY=0;exitDx=0;exitDy=0;entryX=0.5;entryY=1;entryDx=0;entryDy=0;" parent="1" source="udv7P9SN18o3QwY9gsTe-67" target="udv7P9SN18o3QwY9gsTe-75" edge="1">
          <mxGeometry width="50" height="50" relative="1" as="geometry">
            <mxPoint x="552" y="300" as="sourcePoint" />
            <mxPoint x="564" y="320" as="targetPoint" />
          </mxGeometry>
        </mxCell>
        <mxCell id="udv7P9SN18o3QwY9gsTe-87" value="" style="endArrow=none;html=1;rounded=0;exitX=0.25;exitY=0;exitDx=0;exitDy=0;entryX=0.5;entryY=1;entryDx=0;entryDy=0;" parent="1" source="udv7P9SN18o3QwY9gsTe-67" target="udv7P9SN18o3QwY9gsTe-71" edge="1">
          <mxGeometry width="50" height="50" relative="1" as="geometry">
            <mxPoint x="562" y="310" as="sourcePoint" />
            <mxPoint x="574" y="330" as="targetPoint" />
          </mxGeometry>
        </mxCell>
        <mxCell id="udv7P9SN18o3QwY9gsTe-88" value="" style="endArrow=none;html=1;rounded=0;strokeWidth=1.5;strokeColor=#00ff00;jumpSize=6;endSize=6;" parent="1" edge="1">
          <mxGeometry width="50" height="50" relative="1" as="geometry">
            <mxPoint x="480.00000000000006" y="216" as="sourcePoint" />
            <mxPoint x="490.00000000000006" y="216" as="targetPoint" />
          </mxGeometry>
        </mxCell>
        <mxCell id="udv7P9SN18o3QwY9gsTe-89" value="&lt;span style=&quot;font-size: 16px;&quot;&gt;&lt;i&gt;Makes&lt;/i&gt;&lt;/span&gt;" style="html=1;whiteSpace=wrap;aspect=fixed;shape=isoRectangle;fillColor=none;" parent="1" vertex="1">
          <mxGeometry x="453.95000000000005" y="371.5" width="120.84" height="72.5" as="geometry" />
        </mxCell>
        <mxCell id="udv7P9SN18o3QwY9gsTe-90" value="" style="endArrow=none;html=1;rounded=0;exitX=0.5;exitY=1;exitDx=0;exitDy=0;entryX=0.499;entryY=0.025;entryDx=0;entryDy=0;entryPerimeter=0;" parent="1" source="udv7P9SN18o3QwY9gsTe-67" target="udv7P9SN18o3QwY9gsTe-89" edge="1">
          <mxGeometry width="50" height="50" relative="1" as="geometry">
            <mxPoint x="470" y="270" as="sourcePoint" />
            <mxPoint x="400" y="270" as="targetPoint" />
          </mxGeometry>
        </mxCell>
        <mxCell id="udv7P9SN18o3QwY9gsTe-92" value="" style="endArrow=none;html=1;rounded=0;exitX=0.5;exitY=0.974;exitDx=0;exitDy=0;entryX=0.5;entryY=0;entryDx=0;entryDy=0;exitPerimeter=0;" parent="1" source="udv7P9SN18o3QwY9gsTe-89" target="udv7P9SN18o3QwY9gsTe-22" edge="1">
          <mxGeometry width="50" height="50" relative="1" as="geometry">
            <mxPoint x="400" y="560" as="sourcePoint" />
            <mxPoint x="470" y="560" as="targetPoint" />
          </mxGeometry>
        </mxCell>
        <mxCell id="udv7P9SN18o3QwY9gsTe-93" value="(0, n)" style="text;html=1;align=center;verticalAlign=middle;whiteSpace=wrap;rounded=0;" parent="1" vertex="1">
          <mxGeometry x="509.99999999999994" y="350" width="60" height="30" as="geometry" />
        </mxCell>
        <mxCell id="udv7P9SN18o3QwY9gsTe-94" value="(1, 1)" style="text;html=1;align=center;verticalAlign=middle;whiteSpace=wrap;rounded=0;" parent="1" vertex="1">
          <mxGeometry x="509.99999999999994" y="438" width="60" height="30" as="geometry" />
        </mxCell>
        <mxCell id="udv7P9SN18o3QwY9gsTe-95" value="&lt;b style=&quot;font-size: 18px;&quot;&gt;1:N&lt;/b&gt;" style="text;html=1;align=center;verticalAlign=middle;whiteSpace=wrap;rounded=0;fontSize=18;" parent="1" vertex="1">
          <mxGeometry x="406.67" y="396" width="53.33" height="23.5" as="geometry" />
        </mxCell>
        <mxCell id="udv7P9SN18o3QwY9gsTe-96" value="&lt;span style=&quot;font-size: 20px;&quot;&gt;&lt;i&gt;Address&lt;/i&gt;&lt;/span&gt;" style="rounded=0;whiteSpace=wrap;html=1;fillColor=none;align=center;" parent="1" vertex="1">
          <mxGeometry x="830" y="230" width="108.75" height="60" as="geometry" />
        </mxCell>
        <mxCell id="udv7P9SN18o3QwY9gsTe-97" value="" style="endArrow=none;html=1;rounded=0;entryX=1;entryY=0.5;entryDx=0;entryDy=0;exitX=0.004;exitY=0.5;exitDx=0;exitDy=0;exitPerimeter=0;" parent="1" source="udv7P9SN18o3QwY9gsTe-68" target="udv7P9SN18o3QwY9gsTe-67" edge="1">
          <mxGeometry width="50" height="50" relative="1" as="geometry">
            <mxPoint x="650" y="260" as="sourcePoint" />
            <mxPoint x="400" y="270" as="targetPoint" />
          </mxGeometry>
        </mxCell>
        <mxCell id="udv7P9SN18o3QwY9gsTe-98" value="" style="endArrow=none;html=1;rounded=0;entryX=0.996;entryY=0.498;entryDx=0;entryDy=0;entryPerimeter=0;exitX=0;exitY=0.5;exitDx=0;exitDy=0;" parent="1" source="udv7P9SN18o3QwY9gsTe-96" target="udv7P9SN18o3QwY9gsTe-68" edge="1">
          <mxGeometry width="50" height="50" relative="1" as="geometry">
            <mxPoint x="790" y="260" as="sourcePoint" />
            <mxPoint x="579" y="270" as="targetPoint" />
            <Array as="points">
              <mxPoint x="800" y="260" />
            </Array>
          </mxGeometry>
        </mxCell>
        <mxCell id="udv7P9SN18o3QwY9gsTe-99" value="&lt;span style=&quot;font-size: 16px;&quot;&gt;&lt;i&gt;ShipsTo&lt;/i&gt;&lt;/span&gt;" style="html=1;whiteSpace=wrap;aspect=fixed;shape=isoRectangle;fillColor=none;" parent="1" vertex="1">
          <mxGeometry x="823.95" y="513.75" width="120.84" height="72.5" as="geometry" />
        </mxCell>
        <mxCell id="udv7P9SN18o3QwY9gsTe-100" value="" style="endArrow=none;html=1;rounded=0;exitX=1;exitY=0.5;exitDx=0;exitDy=0;entryX=0.004;entryY=0.5;entryDx=0;entryDy=0;entryPerimeter=0;" parent="1" source="udv7P9SN18o3QwY9gsTe-22" target="udv7P9SN18o3QwY9gsTe-99" edge="1">
          <mxGeometry width="50" height="50" relative="1" as="geometry">
            <mxPoint x="400" y="560" as="sourcePoint" />
            <mxPoint x="470" y="560" as="targetPoint" />
          </mxGeometry>
        </mxCell>
        <mxCell id="udv7P9SN18o3QwY9gsTe-101" value="" style="endArrow=none;html=1;rounded=0;entryX=0.5;entryY=0.02;entryDx=0;entryDy=0;entryPerimeter=0;exitX=0.5;exitY=1;exitDx=0;exitDy=0;" parent="1" source="udv7P9SN18o3QwY9gsTe-96" target="udv7P9SN18o3QwY9gsTe-99" edge="1">
          <mxGeometry width="50" height="50" relative="1" as="geometry">
            <mxPoint x="880" y="360" as="sourcePoint" />
            <mxPoint x="834" y="560" as="targetPoint" />
          </mxGeometry>
        </mxCell>
        <mxCell id="udv7P9SN18o3QwY9gsTe-102" value="(0, n)" style="text;html=1;align=center;verticalAlign=middle;whiteSpace=wrap;rounded=0;" parent="1" vertex="1">
          <mxGeometry x="610" y="225" width="60" height="30" as="geometry" />
        </mxCell>
        <mxCell id="udv7P9SN18o3QwY9gsTe-103" value="(1, 1)" style="text;html=1;align=center;verticalAlign=middle;whiteSpace=wrap;rounded=0;" parent="1" vertex="1">
          <mxGeometry x="780" y="520" width="60" height="30" as="geometry" />
        </mxCell>
        <mxCell id="udv7P9SN18o3QwY9gsTe-104" value="&lt;b style=&quot;font-size: 18px;&quot;&gt;N:1&lt;/b&gt;" style="text;html=1;align=center;verticalAlign=middle;whiteSpace=wrap;rounded=0;fontSize=18;" parent="1" vertex="1">
          <mxGeometry x="683.75" y="196.75" width="53.33" height="23.5" as="geometry" />
        </mxCell>
        <mxCell id="udv7P9SN18o3QwY9gsTe-106" value="(0, n)" style="text;html=1;align=center;verticalAlign=middle;whiteSpace=wrap;rounded=0;" parent="1" vertex="1">
          <mxGeometry x="884.79" y="485.25" width="60" height="30" as="geometry" />
        </mxCell>
        <mxCell id="udv7P9SN18o3QwY9gsTe-107" value="&lt;b style=&quot;font-size: 18px;&quot;&gt;1:N&lt;/b&gt;" style="text;html=1;align=center;verticalAlign=middle;whiteSpace=wrap;rounded=0;fontSize=18;" parent="1" vertex="1">
          <mxGeometry x="938.75" y="538.25" width="53.33" height="23.5" as="geometry" />
        </mxCell>
        <mxCell id="udv7P9SN18o3QwY9gsTe-108" value="id" style="ellipse;whiteSpace=wrap;html=1;fillColor=none;" parent="1" vertex="1">
          <mxGeometry x="820" y="198.5" width="30" height="20" as="geometry" />
        </mxCell>
        <mxCell id="udv7P9SN18o3QwY9gsTe-109" value="country" style="ellipse;whiteSpace=wrap;html=1;fillColor=none;" parent="1" vertex="1">
          <mxGeometry x="856.77" y="196.75" width="55.21" height="20" as="geometry" />
        </mxCell>
        <mxCell id="udv7P9SN18o3QwY9gsTe-110" value="province" style="ellipse;whiteSpace=wrap;html=1;fillColor=none;" parent="1" vertex="1">
          <mxGeometry x="920" y="196.5" width="55.21" height="23.75" as="geometry" />
        </mxCell>
        <mxCell id="udv7P9SN18o3QwY9gsTe-111" value="city" style="ellipse;whiteSpace=wrap;html=1;fillColor=none;" parent="1" vertex="1">
          <mxGeometry x="955" y="225" width="40" height="20" as="geometry" />
        </mxCell>
        <mxCell id="udv7P9SN18o3QwY9gsTe-112" value="street" style="ellipse;whiteSpace=wrap;html=1;fillColor=none;" parent="1" vertex="1">
          <mxGeometry x="955" y="250" width="47.61" height="20" as="geometry" />
        </mxCell>
        <mxCell id="udv7P9SN18o3QwY9gsTe-113" value="number" style="ellipse;whiteSpace=wrap;html=1;fillColor=none;" parent="1" vertex="1">
          <mxGeometry x="950" y="281.5" width="57.61" height="18.5" as="geometry" />
        </mxCell>
        <mxCell id="udv7P9SN18o3QwY9gsTe-114" value="unit" style="ellipse;whiteSpace=wrap;html=1;fillColor=none;" parent="1" vertex="1">
          <mxGeometry x="901.14" y="310" width="37.61" height="19" as="geometry" />
        </mxCell>
        <mxCell id="udv7P9SN18o3QwY9gsTe-115" value="" style="endArrow=none;html=1;rounded=0;entryX=0.25;entryY=0;entryDx=0;entryDy=0;exitX=0.5;exitY=1;exitDx=0;exitDy=0;" parent="1" source="udv7P9SN18o3QwY9gsTe-108" target="udv7P9SN18o3QwY9gsTe-96" edge="1">
          <mxGeometry width="50" height="50" relative="1" as="geometry">
            <mxPoint x="840" y="270" as="sourcePoint" />
            <mxPoint x="780" y="270" as="targetPoint" />
            <Array as="points" />
          </mxGeometry>
        </mxCell>
        <mxCell id="udv7P9SN18o3QwY9gsTe-116" value="" style="endArrow=none;html=1;rounded=0;entryX=0.5;entryY=0;entryDx=0;entryDy=0;exitX=0.5;exitY=1;exitDx=0;exitDy=0;" parent="1" source="udv7P9SN18o3QwY9gsTe-109" target="udv7P9SN18o3QwY9gsTe-96" edge="1">
          <mxGeometry width="50" height="50" relative="1" as="geometry">
            <mxPoint x="845" y="229" as="sourcePoint" />
            <mxPoint x="867" y="240" as="targetPoint" />
            <Array as="points" />
          </mxGeometry>
        </mxCell>
        <mxCell id="udv7P9SN18o3QwY9gsTe-117" value="" style="endArrow=none;html=1;rounded=0;entryX=0;entryY=1;entryDx=0;entryDy=0;exitX=0.75;exitY=0;exitDx=0;exitDy=0;" parent="1" source="udv7P9SN18o3QwY9gsTe-96" target="udv7P9SN18o3QwY9gsTe-110" edge="1">
          <mxGeometry width="50" height="50" relative="1" as="geometry">
            <mxPoint x="894" y="227" as="sourcePoint" />
            <mxPoint x="894" y="240" as="targetPoint" />
            <Array as="points" />
          </mxGeometry>
        </mxCell>
        <mxCell id="udv7P9SN18o3QwY9gsTe-118" value="" style="endArrow=none;html=1;rounded=0;entryX=0;entryY=0.5;entryDx=0;entryDy=0;exitX=1;exitY=0.25;exitDx=0;exitDy=0;" parent="1" source="udv7P9SN18o3QwY9gsTe-96" target="udv7P9SN18o3QwY9gsTe-111" edge="1">
          <mxGeometry width="50" height="50" relative="1" as="geometry">
            <mxPoint x="922" y="240" as="sourcePoint" />
            <mxPoint x="958" y="229" as="targetPoint" />
            <Array as="points" />
          </mxGeometry>
        </mxCell>
        <mxCell id="udv7P9SN18o3QwY9gsTe-119" value="" style="endArrow=none;html=1;rounded=0;entryX=0;entryY=0.5;entryDx=0;entryDy=0;exitX=1;exitY=0.5;exitDx=0;exitDy=0;" parent="1" source="udv7P9SN18o3QwY9gsTe-96" target="udv7P9SN18o3QwY9gsTe-112" edge="1">
          <mxGeometry width="50" height="50" relative="1" as="geometry">
            <mxPoint x="949" y="255" as="sourcePoint" />
            <mxPoint x="960" y="250" as="targetPoint" />
            <Array as="points" />
          </mxGeometry>
        </mxCell>
        <mxCell id="udv7P9SN18o3QwY9gsTe-121" value="" style="endArrow=none;html=1;rounded=0;entryX=0;entryY=0;entryDx=0;entryDy=0;exitX=1;exitY=0.75;exitDx=0;exitDy=0;" parent="1" source="udv7P9SN18o3QwY9gsTe-96" target="udv7P9SN18o3QwY9gsTe-113" edge="1">
          <mxGeometry width="50" height="50" relative="1" as="geometry">
            <mxPoint x="949" y="270" as="sourcePoint" />
            <mxPoint x="965" y="270" as="targetPoint" />
            <Array as="points" />
          </mxGeometry>
        </mxCell>
        <mxCell id="udv7P9SN18o3QwY9gsTe-122" value="" style="endArrow=none;html=1;rounded=0;entryX=0.5;entryY=0;entryDx=0;entryDy=0;exitX=0.75;exitY=1;exitDx=0;exitDy=0;" parent="1" source="udv7P9SN18o3QwY9gsTe-96" target="udv7P9SN18o3QwY9gsTe-114" edge="1">
          <mxGeometry width="50" height="50" relative="1" as="geometry">
            <mxPoint x="949" y="285" as="sourcePoint" />
            <mxPoint x="968" y="294" as="targetPoint" />
            <Array as="points" />
          </mxGeometry>
        </mxCell>
        <mxCell id="udv7P9SN18o3QwY9gsTe-123" value="" style="endArrow=none;html=1;rounded=0;strokeWidth=1.5;strokeColor=#00ff00;jumpSize=6;endSize=6;" parent="1" edge="1">
          <mxGeometry width="50" height="50" relative="1" as="geometry">
            <mxPoint x="830" y="215" as="sourcePoint" />
            <mxPoint x="840" y="215" as="targetPoint" />
          </mxGeometry>
        </mxCell>
        <mxCell id="udv7P9SN18o3QwY9gsTe-124" value="(1, 1)" style="text;html=1;align=center;verticalAlign=middle;whiteSpace=wrap;rounded=0;" parent="1" vertex="1">
          <mxGeometry x="750" y="225" width="60" height="30" as="geometry" />
        </mxCell>
        <mxCell id="udv7P9SN18o3QwY9gsTe-125" value="" style="endArrow=none;html=1;rounded=0;strokeWidth=1.5;strokeColor=#00ff00;jumpSize=6;endSize=6;" parent="1" edge="1">
          <mxGeometry width="50" height="50" relative="1" as="geometry">
            <mxPoint x="548.75" y="317" as="sourcePoint" />
            <mxPoint x="561" y="317" as="targetPoint" />
          </mxGeometry>
        </mxCell>
      </root>
    </mxGraphModel>
  </diagram>
</mxfile>
